<?xml version="1.0" standalone="no"?>
<!DOCTYPE svg PUBLIC "-//W3C//DTD SVG 20010904//EN"
 "http://www.w3.org/TR/2001/REC-SVG-20010904/DTD/svg10.dtd">
<svg version="1.0" xmlns="http://www.w3.org/2000/svg"
 width="700.000000pt" height="700.000000pt" viewBox="0 0 700.000000 700.000000"
 preserveAspectRatio="xMidYMid meet">
<metadata>
Created by potrace 1.15, written by Peter Selinger 2001-2017
</metadata>
<g transform="translate(0.000000,700.000000) scale(0.100000,-0.100000)"
fill="#000000" stroke="none">
<path d="M3181 5924 c-79 -21 -165 -71 -212 -121 -22 -25 -39 -46 -37 -48 1
-2 28 3 58 11 86 24 185 14 264 -25 37 -18 79 -48 95 -68 30 -36 34 -57 8 -35
-24 20 -130 42 -202 42 -126 0 -263 -40 -381 -111 -61 -37 -144 -112 -163
-148 -12 -22 -12 -22 36 -15 75 12 185 8 223 -9 19 -8 52 -28 73 -45 l37 -30
-66 -11 c-146 -26 -269 -88 -368 -187 -66 -65 -128 -170 -144 -242 l-10 -42
63 68 c67 72 151 125 218 137 47 9 47 1 -1 -24 -67 -34 -179 -129 -225 -191
l-45 -60 -55 83 c-192 287 -420 445 -667 463 -293 22 -590 -210 -670 -522 -62
-240 17 -466 214 -621 59 -46 180 -112 275 -150 23 -9 18 -13 -70 -60 -52 -28
-118 -61 -146 -73 -29 -12 -53 -26 -53 -30 0 -5 24 -29 53 -55 73 -65 179
-115 256 -122 33 -3 61 -9 61 -12 0 -3 -33 -26 -73 -50 -165 -102 -339 -241
-425 -339 -29 -33 -52 -63 -52 -66 0 -3 66 -6 147 -6 l148 0 -64 -37 c-118
-70 -266 -249 -395 -478 -61 -108 -66 -125 -38 -125 20 0 117 -61 164 -102 40
-35 218 -239 218 -250 0 -5 -29 -57 -63 -116 -364 -613 -603 -1262 -735 -1995
l-19 -107 3083 0 3084 0 0 20 c0 29 -66 351 -105 515 -130 543 -363 1107 -658
1593 -60 99 -66 78 71 234 97 110 221 208 263 208 10 0 19 2 19 5 0 18 -100
199 -159 287 -109 163 -212 266 -345 343 -12 7 29 9 134 7 179 -4 176 -10 50
117 -89 88 -230 198 -362 281 -48 30 -88 58 -88 61 0 3 28 9 61 12 77 7 183
57 257 122 28 26 52 50 52 55 0 4 -24 18 -52 30 -29 12 -95 45 -147 73 l-95
50 30 13 c112 48 171 78 226 115 278 188 355 505 196 812 -61 118 -182 238
-298 295 -136 68 -259 86 -390 58 -240 -52 -402 -183 -628 -512 -11 -16 -12
-12 -8 28 13 114 -29 287 -99 415 -180 328 -588 612 -986 688 -101 19 -266 19
-338 -1z m-1376 -985 c96 -36 219 -171 237 -259 6 -32 -18 -22 -50 21 -121
161 -219 205 -361 163 -105 -31 -177 -134 -169 -243 8 -111 83 -206 209 -267
35 -16 80 -38 99 -47 l35 -17 -84 4 c-183 9 -306 123 -341 314 -27 153 47 288
187 338 59 21 173 18 238 -7z m3659 1 c65 -25 135 -95 160 -162 29 -74 20
-195 -21 -280 -61 -130 -160 -196 -306 -205 l-82 -4 111 54 c117 59 164 100
206 179 31 60 31 166 0 225 -42 80 -135 133 -234 133 -93 0 -172 -49 -253
-156 -59 -78 -80 -92 -69 -46 26 105 130 219 242 263 66 25 175 25 246 -1z
m-2644 -640 c84 -14 154 -48 158 -77 2 -12 -6 -31 -18 -43 -19 -19 -29 -21
-78 -16 -176 17 -290 18 -366 2 -107 -22 -161 -21 -186 4 -33 33 -23 63 29 89
31 16 60 24 166 45 42 8 233 5 295 -4z m1778 -18 c73 -23 102 -45 102 -78 0
-56 -58 -67 -198 -38 -77 16 -213 15 -365 -2 -64 -7 -97 10 -97 51 0 31 26 51
90 69 83 23 103 25 260 21 110 -2 160 -8 208 -23z m142 -260 c219 -38 225 -39
281 -69 64 -34 84 -73 77 -150 -7 -72 -20 -95 -71 -123 -21 -12 -43 -34 -48
-48 -6 -15 -26 -103 -44 -196 -40 -201 -71 -272 -147 -341 -58 -52 -163 -105
-258 -130 -130 -33 -354 -29 -451 10 -14 5 -16 -6 -11 -113 15 -371 -122 -495
-548 -494 -414 1 -555 130 -538 492 l5 106 -66 -18 c-86 -22 -284 -24 -389 -3
-106 22 -226 80 -285 139 -75 75 -100 136 -142 348 -35 171 -46 198 -93 223
-48 26 -72 74 -72 147 0 69 26 105 98 136 59 26 396 88 557 103 188 18 523 -3
745 -47 159 -30 173 -30 351 6 219 45 388 59 649 55 195 -2 248 -7 400 -33z
m-2667 -1222 c73 -23 154 -86 181 -144 47 -99 -8 -236 -117 -291 -64 -31 -117
-32 -183 -1 -110 51 -174 142 -174 248 0 32 6 73 14 91 27 64 107 116 182 117
18 0 61 -9 97 -20z m2980 9 c21 -5 53 -24 73 -41 148 -130 30 -399 -186 -425
-121 -14 -240 101 -240 232 0 65 20 104 80 158 78 71 186 101 273 76z m-1101
-467 c-42 -111 -137 -204 -249 -244 -71 -26 -216 -35 -296 -18 -128 26 -250
120 -302 232 -25 53 -32 83 -17 76 185 -95 280 -122 432 -121 152 0 283 34
400 104 25 14 46 25 48 24 2 -1 -6 -25 -16 -53z m1763 -184 c30 -13 42 -50 27
-82 -13 -30 -84 -64 -147 -72 -100 -13 -117 -53 -72 -164 30 -74 57 -84 132
-47 31 15 69 27 85 27 39 0 70 -32 70 -70 0 -35 -38 -64 -98 -75 -20 -4 -49
-13 -65 -22 -28 -14 -29 -17 -25 -71 4 -47 10 -60 37 -84 44 -40 92 -38 182 8
80 40 104 40 132 3 31 -42 11 -63 -120 -127 -99 -48 -124 -56 -173 -57 -68 0
-114 30 -157 102 -30 52 -161 482 -170 558 -8 76 13 95 145 139 155 50 175 54
217 34z m-4243 -27 c56 -24 113 -89 126 -144 21 -83 -20 -194 -93 -254 l-35
-29 17 -35 c25 -50 29 -150 9 -204 -21 -54 -73 -102 -122 -111 -108 -20 -239
19 -302 90 -55 63 -52 116 15 295 37 101 131 296 166 344 46 67 133 85 219 48z
m3733 -132 c50 -44 96 -148 145 -324 22 -82 57 -193 76 -245 55 -152 55 -180
-1 -216 -23 -15 -27 -15 -51 1 -40 26 -71 108 -108 286 -34 164 -50 219 -62
219 -4 0 -4 -102 0 -227 8 -239 4 -273 -33 -292 -17 -9 -26 -6 -55 19 -49 44
-111 146 -151 249 -18 49 -46 113 -62 142 l-28 54 -3 -47 c-2 -34 6 -73 29
-135 17 -49 44 -124 60 -168 34 -96 38 -164 10 -189 -37 -33 -75 0 -124 108
-36 79 -107 431 -107 530 0 82 45 186 80 186 20 0 82 -65 104 -109 30 -59 65
-151 105 -274 30 -95 62 -157 82 -157 15 0 10 72 -16 232 -38 233 -30 348 28
376 34 17 44 14 82 -19z m-3267 -4 c76 -18 135 -47 156 -77 19 -27 21 -69 4
-86 -18 -18 -105 -14 -177 8 -53 17 -67 18 -90 8 -32 -16 -57 -65 -73 -142
-14 -71 -9 -76 79 -76 34 0 68 -3 77 -6 19 -7 22 -64 4 -82 -15 -15 -97 -15
-157 -1 -55 12 -64 5 -81 -65 -23 -98 3 -130 134 -162 116 -28 150 -56 114
-92 -32 -32 -236 2 -326 54 -85 50 -86 33 24 381 59 189 104 317 117 331 25
27 98 30 195 7z m539 -82 c40 -27 54 -76 63 -231 8 -134 17 -242 36 -438 12
-123 -13 -184 -74 -184 -45 0 -64 30 -71 110 -8 84 -22 101 -89 108 l-49 4
-27 -68 c-15 -38 -37 -79 -49 -91 -20 -23 -59 -29 -92 -17 -21 8 -45 56 -45
89 0 29 31 94 67 141 33 44 140 276 162 354 11 36 25 94 32 130 9 47 20 73 41
93 29 30 49 30 95 0z m258 -29 c9 -4 26 -25 38 -48 21 -40 22 -50 19 -281 -3
-224 5 -323 21 -270 20 64 58 289 68 399 11 116 14 129 35 143 29 19 70 7 96
-28 27 -35 40 -178 33 -344 -3 -78 -2 -153 3 -170 l9 -30 11 27 c13 32 28 145
40 309 13 167 52 241 117 225 49 -12 51 -98 7 -271 -12 -44 -28 -125 -38 -180
-26 -158 -53 -265 -74 -295 -23 -32 -62 -45 -90 -30 -40 21 -53 68 -59 213 -6
134 -12 156 -42 157 -26 0 -48 -110 -49 -241 0 -82 -17 -108 -77 -116 -37 -5
-46 -2 -73 25 l-30 30 0 149 c0 229 -23 452 -55 520 -14 30 -25 61 -25 69 0
31 70 55 115 38z m1802 -34 c51 -30 88 -92 122 -198 74 -237 69 -409 -17 -504
-94 -105 -226 -104 -295 1 -56 84 -97 274 -97 445 1 135 26 190 115 250 48 33
124 36 172 6z m-482 -29 c112 -50 152 -185 69 -233 -48 -28 -67 -8 -72 76 -5
71 -22 94 -61 81 -27 -8 -55 -79 -55 -141 -1 -47 3 -57 31 -86 18 -17 62 -50
100 -72 93 -56 126 -106 131 -194 3 -59 0 -74 -25 -122 -41 -77 -103 -115
-187 -114 -72 1 -150 32 -192 75 -25 26 -29 38 -29 89 0 48 4 63 24 84 28 29
84 35 115 13 16 -12 17 -18 7 -50 -16 -47 -7 -73 29 -92 69 -36 150 -3 150 59
0 45 -42 101 -166 221 -113 110 -137 149 -137 231 0 140 142 233 268 175z
m-363 -48 c10 -9 18 -28 18 -42 0 -61 -53 -91 -162 -91 -83 0 -102 -21 -95
-102 3 -33 10 -65 16 -71 6 -6 47 -13 91 -16 84 -7 100 -15 100 -56 0 -40 -16
-50 -82 -50 -35 0 -77 4 -94 8 -27 7 -32 5 -43 -19 -7 -15 -15 -64 -18 -109
-5 -76 -4 -84 16 -104 21 -21 28 -22 126 -15 57 3 114 4 128 0 48 -12 46 -66
-3 -91 -22 -11 -64 -15 -162 -15 -73 0 -143 3 -156 6 -48 13 -50 34 -43 389 7
406 2 390 119 380 42 -4 95 -2 117 3 62 15 107 14 127 -5z m-1198 -802 c39
-11 100 -22 135 -26 79 -8 119 -27 127 -62 5 -20 2 -31 -16 -45 -25 -20 -46
-22 -103 -9 -37 9 -38 8 -57 -28 -26 -52 -48 -143 -65 -271 -26 -198 -61 -294
-111 -306 -28 -7 -64 19 -64 45 0 9 13 59 29 111 39 128 101 388 101 423 0 50
-15 64 -90 82 -39 10 -81 26 -93 36 l-22 19 28 25 c35 31 100 33 201 6z m2065
-10 c31 -31 38 -77 30 -196 -5 -84 -12 -125 -32 -174 l-26 -64 30 -123 c21
-87 29 -142 27 -186 -3 -62 -3 -63 -32 -63 -40 0 -59 40 -91 190 -34 161 -31
152 -90 215 -62 65 -97 125 -119 199 -22 77 -21 136 4 161 24 24 34 25 54 5
16 -16 22 -44 30 -136 5 -69 35 -131 71 -147 38 -18 51 -15 74 14 28 36 28
125 1 194 -11 28 -20 64 -20 80 0 48 54 66 89 31z m-2870 -26 c11 -14 32 -58
47 -97 36 -90 51 -100 150 -96 103 4 106 -9 25 -96 -56 -60 -61 -69 -61 -111
0 -25 7 -62 15 -82 40 -95 3 -110 -111 -47 -70 39 -97 42 -139 13 -127 -86
-183 -82 -150 12 8 23 15 62 15 86 0 42 -5 50 -66 114 -85 87 -82 99 21 99 67
0 79 3 100 24 13 13 27 37 31 53 11 43 44 116 61 136 22 24 38 21 62 -8z
m3644 7 c9 -9 34 -56 55 -104 45 -96 59 -106 146 -93 52 8 86 0 86 -21 0 -8
-27 -44 -60 -79 -52 -56 -60 -70 -60 -103 0 -22 9 -59 19 -83 31 -72 33 -86
16 -103 -15 -14 -20 -14 -53 0 -20 8 -57 28 -83 44 -25 17 -56 30 -69 30 -13
0 -51 -15 -84 -34 -118 -66 -146 -51 -109 55 15 40 15 53 5 69 -6 11 -12 26
-12 33 0 8 -30 44 -67 79 -85 85 -82 98 21 98 94 0 115 16 146 112 22 70 53
118 74 118 7 0 20 -8 29 -18z m-2251 -78 c39 -20 74 -70 92 -133 21 -73 23
-376 2 -445 -21 -70 -55 -113 -110 -141 -85 -43 -182 -25 -255 45 -65 63 -68
87 -42 333 32 291 52 340 149 357 50 8 131 0 164 -16z m453 -3 c49 -22 86 -64
124 -140 50 -98 61 -152 61 -301 0 -121 -2 -141 -22 -180 -39 -76 -102 -106
-245 -117 -66 -5 -87 -3 -106 10 l-24 16 -2 238 c-1 263 10 436 30 460 31 36
120 44 184 14z m509 -9 c26 -24 49 -72 101 -215 47 -131 92 -232 145 -326 39
-70 40 -121 4 -150 -15 -12 -38 -21 -51 -21 -32 0 -76 47 -91 98 -18 58 -65
96 -111 88 -53 -8 -71 -36 -71 -111 0 -78 -16 -95 -97 -102 -50 -5 -61 -2 -77
16 -17 19 -18 25 -6 64 7 23 23 62 35 87 35 70 47 148 50 343 4 197 9 217 68
243 36 16 73 10 101 -14z"/>
<path d="M3975 4024 c-127 -14 -210 -28 -350 -58 -93 -21 -144 -20 -261 4
-213 45 -580 69 -769 51 -146 -14 -488 -75 -541 -97 -22 -9 -51 -28 -66 -42
-24 -22 -28 -34 -28 -77 0 -77 14 -107 65 -138 26 -15 50 -39 56 -54 6 -16 26
-98 44 -184 19 -86 43 -179 54 -208 65 -172 266 -272 546 -272 193 -1 331 50
445 161 94 93 196 289 222 427 23 120 28 132 58 148 62 32 158 10 177 -41 6
-16 16 -56 23 -89 16 -79 66 -202 119 -294 88 -150 228 -253 391 -287 91 -19
274 -14 365 10 94 26 200 80 255 132 80 75 96 118 150 398 25 132 39 160 89
186 45 22 61 58 61 132 0 43 -4 54 -30 78 -42 39 -99 56 -307 91 -155 27 -208
31 -408 34 -157 3 -271 -1 -360 -11z m753 -39 c300 -50 332 -66 332 -166 0
-61 -15 -90 -59 -112 -47 -24 -62 -59 -96 -233 -19 -93 -39 -184 -44 -202 -53
-178 -267 -292 -546 -292 -200 0 -312 44 -435 169 -107 107 -187 268 -221 441
-14 74 -37 103 -97 121 -81 24 -172 -23 -172 -89 0 -59 -42 -189 -97 -301 -48
-97 -68 -127 -132 -191 -126 -126 -232 -165 -446 -164 -202 2 -335 45 -441
145 -67 65 -88 114 -131 318 -43 206 -51 224 -102 250 -50 26 -63 50 -65 119
-1 47 2 57 27 78 15 13 58 32 95 43 79 23 326 67 462 82 181 21 614 -4 795
-46 90 -21 246 -16 375 13 81 18 241 39 430 56 129 11 360 -4 568 -39z"/>
<path d="M4165 4003 c-161 -11 -365 -37 -464 -59 -95 -21 -132 -25 -220 -21
-58 2 -137 11 -176 20 -160 37 -568 58 -742 38 -129 -14 -422 -67 -485 -87
-67 -22 -91 -56 -83 -114 8 -53 16 -65 63 -87 46 -22 63 -64 101 -244 37 -178
54 -231 94 -286 127 -178 528 -239 767 -118 106 54 183 139 254 281 51 102 81
191 95 282 12 74 21 89 76 113 46 21 75 23 127 8 69 -18 87 -44 109 -149 24
-114 106 -293 173 -378 111 -140 251 -202 461 -202 258 0 469 105 520 260 9
28 31 124 50 214 37 187 47 212 95 243 60 39 61 40 58 106 l-3 61 -45 23 c-30
15 -107 33 -228 53 -270 44 -418 55 -597 43z m-1128 -84 c116 -22 199 -74 234
-147 66 -136 -12 -431 -156 -590 -63 -69 -157 -121 -253 -141 -68 -14 -226
-14 -294 0 -226 47 -346 220 -364 528 -8 126 2 165 54 223 68 76 203 122 397
138 121 9 298 4 382 -11z m1504 -3 c152 -35 244 -90 280 -170 42 -93 16 -336
-51 -473 -82 -167 -212 -236 -445 -237 -183 0 -299 46 -401 157 -129 143 -206
407 -163 561 23 83 131 154 269 176 83 13 433 4 511 -14z"/>
<path d="M3383 3079 c-95 -12 -194 -39 -238 -64 -101 -58 -114 -204 -29 -326
22 -32 47 -50 118 -83 100 -48 262 -106 295 -106 30 0 226 72 308 113 105 54
154 129 156 242 1 134 -69 185 -303 220 -102 16 -208 17 -307 4z m420 -90
c121 -33 166 -186 74 -251 -43 -31 -108 -31 -139 -1 -27 27 -20 38 15 22 55
-25 114 21 88 70 -7 12 -21 21 -36 21 -13 0 -39 14 -57 30 -19 17 -44 30 -59
30 -71 0 -149 -107 -149 -206 0 -60 11 -73 70 -81 42 -6 52 -18 23 -27 -61
-17 -137 -26 -170 -20 -88 16 -93 44 -7 44 l54 0 0 83 c-1 113 -24 139 -151
167 -99 22 -159 -5 -159 -72 0 -44 36 -70 93 -66 31 2 47 -1 47 -9 0 -21 -44
-43 -86 -43 -79 0 -132 73 -121 167 6 57 31 92 88 121 35 19 54 22 98 18 66
-6 155 -48 183 -87 l21 -29 18 29 c46 76 166 117 262 90z"/>
<path d="M1354 2006 c-25 -18 -60 -87 -73 -145 -12 -54 3 -66 85 -66 75 0 97
16 119 87 15 52 7 79 -35 109 -37 27 -72 32 -96 15z"/>
<path d="M1227 1682 c-10 -10 -26 -52 -36 -93 -22 -84 -20 -90 51 -111 52 -15
97 -1 125 41 43 64 25 130 -44 165 -42 21 -76 20 -96 -2z"/>
<path d="M2416 1709 c-9 -13 -16 -29 -16 -36 0 -6 -18 -66 -40 -133 -53 -160
-53 -166 7 -174 30 -4 49 -2 54 5 13 21 32 325 22 344 -9 16 -11 16 -27 -6z"/>
<path d="M4444 1690 c-59 -24 -80 -141 -46 -256 11 -38 23 -98 26 -134 9 -103
53 -145 103 -98 59 54 65 103 34 269 -11 57 -22 121 -26 143 -6 35 -43 87 -62
85 -4 0 -17 -4 -29 -9z"/>
<path d="M2974 780 c-31 -12 -60 -81 -80 -185 -31 -171 -3 -335 61 -351 33 -8
89 27 108 69 19 41 32 345 17 398 -16 57 -62 87 -106 69z"/>
<path d="M3424 733 c-16 -16 -16 -37 -11 -238 8 -240 10 -262 37 -270 32 -10
104 13 128 40 20 24 22 36 22 153 0 187 -32 281 -107 317 -40 19 -48 19 -69
-2z"/>
<path d="M3966 723 c-3 -21 -6 -94 -8 -163 -3 -122 -2 -125 19 -128 12 -2 40
2 62 8 32 8 42 17 48 38 8 34 -16 129 -56 216 -34 76 -56 85 -65 29z"/>
</g>
</svg>
